<svg xmlns="http://www.w3.org/2000/svg" width="256" height="256" viewBox="0 0 256 256" role="img">
<defs>
  <linearGradient id="hexGrad" x1="0%" y1="0%" x2="100%" y2="100%">
    <stop offset="0%" stop-color="#2b6cb0"/>
    <stop offset="100%" stop-color="#0b2f5b"/>
  </linearGradient>
  <linearGradient id="hexHighlight" x1="0%" y1="0%" x2="0%" y2="100%">
    <stop offset="0%" stop-color="#ffffff" stop-opacity="0.35"/>
    <stop offset="60%" stop-color="#ffffff" stop-opacity="0"/>
  </linearGradient>
</defs>
<polygon points="128.0,25.6 216.7,76.8 216.7,179.2 128.0,230.4 39.3,179.2 39.3,76.8" fill="url(#hexGrad)"/>
<polygon points="128.0,25.6 216.7,76.8 216.7,179.2 128.0,230.4 39.3,179.2 39.3,76.8" fill="url(#hexHighlight)"/>
<g stroke="#ffffff" stroke-width="3.1" stroke-linecap="round" stroke-linejoin="round" fill="none">
  <line x1="128.0" y1="128.0" x2="128.0" y2="69.1"/>
  <line x1="128.0" y1="128.0" x2="179.0" y2="98.6"/>
  <line x1="128.0" y1="128.0" x2="179.0" y2="157.4"/>
  <line x1="128.0" y1="128.0" x2="128.0" y2="186.9"/>
  <line x1="128.0" y1="128.0" x2="77.0" y2="157.4"/>
  <line x1="128.0" y1="128.0" x2="77.0" y2="98.6"/>
  <line x1="128.0" y1="69.1" x2="179.0" y2="98.6"/>
  <line x1="179.0" y1="98.6" x2="179.0" y2="157.4"/>
  <line x1="179.0" y1="157.4" x2="128.0" y2="186.9"/>
  <line x1="128.0" y1="186.9" x2="77.0" y2="157.4"/>
  <line x1="77.0" y1="157.4" x2="77.0" y2="98.6"/>
  <line x1="77.0" y1="98.6" x2="128.0" y2="69.1"/>
  <line x1="128.0" y1="69.1" x2="128.0" y2="46.1"/>
  <line x1="179.0" y1="98.6" x2="198.9" y2="87.0"/>
  <line x1="179.0" y1="157.4" x2="198.9" y2="169.0"/>
  <line x1="128.0" y1="186.9" x2="128.0" y2="209.9"/>
  <line x1="77.0" y1="157.4" x2="57.1" y2="169.0"/>
  <line x1="77.0" y1="98.6" x2="57.1" y2="87.0"/>
  <line x1="128.0" y1="46.1" x2="198.9" y2="87.0"/>
  <line x1="198.9" y1="87.0" x2="198.9" y2="169.0"/>
  <line x1="198.9" y1="169.0" x2="128.0" y2="209.9"/>
  <line x1="128.0" y1="209.9" x2="57.1" y2="169.0"/>
  <line x1="57.1" y1="169.0" x2="57.1" y2="87.0"/>
  <line x1="57.1" y1="87.0" x2="128.0" y2="46.1"/>
  <line x1="128.0" y1="69.1" x2="128.0" y2="186.9"/>
  <line x1="179.0" y1="98.6" x2="77.0" y2="157.4"/>
  <line x1="179.0" y1="157.4" x2="77.0" y2="98.6"/>
</g>
<g fill="#ffffff">
  <circle cx="128.0" cy="128.0" r="11.5"/>
  <circle cx="128.0" cy="69.1" r="8.2"/>
  <circle cx="179.0" cy="98.6" r="8.2"/>
  <circle cx="179.0" cy="157.4" r="8.2"/>
  <circle cx="128.0" cy="186.9" r="8.2"/>
  <circle cx="77.0" cy="157.4" r="8.2"/>
  <circle cx="77.0" cy="98.6" r="8.2"/>
  <circle cx="128.0" cy="46.1" r="6.1"/>
  <circle cx="198.9" cy="87.0" r="6.1"/>
  <circle cx="198.9" cy="169.0" r="6.1"/>
  <circle cx="128.0" cy="209.9" r="6.1"/>
  <circle cx="57.1" cy="169.0" r="6.1"/>
  <circle cx="57.1" cy="87.0" r="6.1"/>
</g>
</svg>